
        <svg xmlns="http://www.w3.org/2000/svg" xmlns:xlink="http://www.w3.org/1999/xlink" version="1.1" width="3223.683115174072" height="626.312722487402" viewBox="0 0 3223.683115174072 626.312722487402">
			
			<g transform="scale(11.184155758703607) translate(10, 10)">
				<defs id="SvgjsDefs2302"/><g id="SvgjsG2303" featureKey="nameLeftFeature-0" transform="matrix(2.5646619465342138,0,0,2.5646619465342138,-2.564661640802685,-15.318892251784725)" fill="#000"><path d="M7.7 16.42 c0.04 0.68 -0.14 1.44 -0.52 2 c-0.18 0.26 -0.38 0.52 -0.64 0.74 c-0.16 0.12 -0.32 0.26 -0.5 0.36 s-0.38 0.18 -0.56 0.26 c-0.6 0.26 -1.32 0.28 -1.94 0.12 c-0.32 -0.08 -0.62 -0.2 -0.9 -0.38 c-0.26 -0.16 -0.54 -0.36 -0.74 -0.6 c-0.22 -0.24 -0.42 -0.5 -0.56 -0.8 c-0.08 -0.18 -0.18 -0.38 -0.24 -0.58 c-0.04 -0.2 -0.1 -0.72 -0.1 -0.92 c0 -0.6 2.24 -0.6 2.24 0 c0 0.5 0.78 1.84 1.98 0.64 c0.5 -0.72 0.04 -1.54 -0.4 -2.14 c-0.68 -0.84 -1.56 -1.48 -2.28 -2.28 c-0.42 -0.46 -0.84 -0.98 -1.1 -1.56 c-0.14 -0.32 -0.26 -0.64 -0.34 -1 c-0.3 -1.66 0.22 -4.62 3.84 -4.28 c1.82 0.18 2.62 1.74 2.62 2.8 c0 0.6 -2.28 0.6 -2.28 0 c0 -0.8 -2.26 -0.9 -1.98 0.86 c0.04 0.18 0.08 0.36 0.16 0.54 c0.12 0.26 0.26 0.48 0.42 0.7 c0.2 0.26 0.4 0.48 0.64 0.7 c0.88 0.86 1.88 1.64 2.52 2.74 c0.38 0.64 0.6 1.34 0.66 2.08 z M17.26 6.460000000000001 l0 13.1 c0 0.6 -2.3 0.6 -2.3 0 l0 -5.36 l-2.58 0 l0 5.36 c0 0.6 -2.28 0.6 -2.28 0 l0 -13.1 c0 -0.6 2.28 -0.6 2.28 0 l0 5.48 l2.58 0 l0 -5.48 c0 -0.6 2.3 -0.6 2.3 0 z"/></g><g id="SvgjsG2304" featureKey="inlineSymbolFeature-0" transform="matrix(0.6143344469948813,0,0,0.6143344469948813,46.07849832950768,-1.9658702596773692)" fill="#000"><g xmlns="http://www.w3.org/2000/svg"><line stroke="#111111" stroke-width="2" stroke-linecap="round" stroke-linejoin="round" stroke-miterlimit="10" x1="5.6" y1="58" x2="5.6" y2="22.9"/><line stroke="#111111" stroke-width="2" stroke-linecap="round" stroke-linejoin="round" stroke-miterlimit="10" x1="59.4" y1="22.9" x2="59.4" y2="58"/><rect x="1.5" y="58" stroke="#111111" stroke-width="2" stroke-linecap="round" stroke-linejoin="round" stroke-miterlimit="10" width="62" height="3.8"/><rect x="11.1" y="29.3" stroke="#111111" stroke-width="2" stroke-linecap="round" stroke-linejoin="round" stroke-miterlimit="10" width="17.1" height="28.7"/><circle cx="24.6" cy="43.6" r="1.3"/><rect x="37.9" y="30.2" transform="matrix(-1.836970e-16 1 -1 -1.836970e-16 84.0105 -4.2529)" stroke="#111111" stroke-width="2" stroke-linecap="round" stroke-linejoin="round" stroke-miterlimit="10" width="12.5" height="19.3"/><path stroke="#111111" stroke-width="2" stroke-linecap="round" stroke-linejoin="round" stroke-miterlimit="10" d="   M2.8,14.8v4.5c0,2.1,1.7,3.7,3.7,3.7s3.7-1.7,3.7-3.7v-4.5H2.8z"/><path stroke="#111111" stroke-width="2" stroke-linecap="round" stroke-linejoin="round" stroke-miterlimit="10" d="   M10.2,14.8v4.5c0,2.1,1.7,3.7,3.7,3.7h0c2.1,0,3.7-1.7,3.7-3.7v-4.5H10.2z"/><path stroke="#111111" stroke-width="2" stroke-linecap="round" stroke-linejoin="round" stroke-miterlimit="10" d="   M17.6,14.8v4.5c0,2.1,1.7,3.7,3.7,3.7s3.7-1.7,3.7-3.7v-4.5H17.6z"/><path stroke="#111111" stroke-width="2" stroke-linecap="round" stroke-linejoin="round" stroke-miterlimit="10" d="   M25.1,14.8v4.5c0,2.1,1.7,3.7,3.7,3.7c2.1,0,3.7-1.7,3.7-3.7v-4.5H25.1z"/><path stroke="#111111" stroke-width="2" stroke-linecap="round" stroke-linejoin="round" stroke-miterlimit="10" d="   M32.5,14.8v4.5c0,2.1,1.7,3.7,3.7,3.7c2.1,0,3.7-1.7,3.7-3.7v-4.5H32.5z"/><path stroke="#111111" stroke-width="2" stroke-linecap="round" stroke-linejoin="round" stroke-miterlimit="10" d="   M39.9,14.8v4.5c0,2.1,1.7,3.7,3.7,3.7c2.1,0,3.7-1.7,3.7-3.7v-4.5H39.9z"/><path stroke="#111111" stroke-width="2" stroke-linecap="round" stroke-linejoin="round" stroke-miterlimit="10" d="   M47.4,14.8v4.5c0,2.1,1.7,3.7,3.7,3.7c2.1,0,3.7-1.7,3.7-3.7v-4.5H47.4z"/><path stroke="#111111" stroke-width="2" stroke-linecap="round" stroke-linejoin="round" stroke-miterlimit="10" d="   M54.8,14.8v4.5c0,2.1,1.7,3.7,3.7,3.7c2.1,0,3.7-1.7,3.7-3.7v-4.5H54.8z"/><polygon stroke="#111111" stroke-width="2" stroke-linecap="round" stroke-linejoin="round" stroke-miterlimit="10" points="   18,3.2 13.2,3.2 2.8,14.8 10.2,14.8  "/><polygon stroke="#111111" stroke-width="2" stroke-linecap="round" stroke-linejoin="round" stroke-miterlimit="10" points="   22.8,3.2 18,3.2 10.2,14.8 17.6,14.8  "/><polygon stroke="#111111" stroke-width="2" stroke-linecap="round" stroke-linejoin="round" stroke-miterlimit="10" points="   27.7,3.2 22.8,3.2 17.6,14.8 25.1,14.8  "/><polygon stroke="#111111" stroke-width="2" stroke-linecap="round" stroke-linejoin="round" stroke-miterlimit="10" points="   32.5,3.2 27.7,3.2 25.1,14.8 32.5,14.8  "/><polygon stroke="#111111" stroke-width="2" stroke-linecap="round" stroke-linejoin="round" stroke-miterlimit="10" points="   37.3,3.2 32.5,3.2 32.5,14.8 39.9,14.8  "/><polygon stroke="#111111" stroke-width="2" stroke-linecap="round" stroke-linejoin="round" stroke-miterlimit="10" points="   42.2,3.2 37.3,3.2 39.9,14.8 47.4,14.8  "/><polygon stroke="#111111" stroke-width="2" stroke-linecap="round" stroke-linejoin="round" stroke-miterlimit="10" points="   47,3.2 42.2,3.2 47.4,14.8 54.8,14.8  "/><polygon stroke="#111111" stroke-width="2" stroke-linecap="round" stroke-linejoin="round" stroke-miterlimit="10" points="   51.8,3.2 47,3.2 54.8,14.8 62.2,14.8  "/></g></g><g id="SvgjsG2305" featureKey="nameRightFeature-0" transform="matrix(2.5641020485653794,0,0,2.5641020485653794,86.41025811013577,-15.307688691965296)" fill="#000"><path d="M7.02 6.42 c1.36 0.86 1.78 2.38 1.76 3.92 c-0.02 1.28 -0.2 2.56 -1.46 3.5 c-1.06 0.82 -2.38 0.64 -3.64 0.64 l0 5.08 c0 0.6 -2.28 0.6 -2.28 0 l0 -12.3 c0 -0.94 0.02 -1.24 1.42 -1.26 l2.06 0 c0.72 0 1.52 0.02 2.14 0.42 z M6.5 10.76 c0.02 -0.22 0.02 -1.02 -0.02 -1.4 c-0.08 -0.74 -0.36 -1.12 -1.28 -1.12 l-1.52 0 l0 3.96 l1.72 0 c0.92 0 1.06 -1.12 1.1 -1.44 z M21.740000000000002 16.2 c0 -0.6 2.22 -0.6 2.22 0 c0 2.24 -1.16 3.8 -3.28 3.8 c-2.22 0 -3.74 -1.38 -3.8 -3.5 l0 -0.04 l0 -6.9 l0 -0.04 c0.06 -2.14 1.66 -3.56 3.8 -3.52 c2.24 0.04 3.28 1.6 3.28 3.82 c0 0.6 -2.22 0.6 -2.22 0 c0 -0.22 0 -0.4 -0.04 -0.6 c-0.12 -1.18 -1.54 -0.96 -1.84 -0.8 c-0.58 0.28 -0.7 0.98 -0.7 1.46 l0 6.26 c0.02 0.48 0.12 1.18 0.7 1.46 c0.3 0.16 1.72 0.38 1.84 -0.78 c0.04 -0.2 0.04 -0.4 0.04 -0.62 z M28.64 17.72 l2.86 0 c0.6 0 0.6 2.28 0 2.28 l-3.86 0 c-1.28 0 -1.28 0 -1.28 -1.08 l0 -11.84 c0 -1.08 0 -1.08 1.22 -1.1 l3.9 0.02 c0.6 0 0.6 2.28 0 2.28 l-2.84 0 l0 3.64 l2 0 c0.6 0 0.6 2.3 0 2.3 l-2 0 l0 3.5 z M42.1 6.42 l0 12.74 c0 1 -1.92 1.02 -2.12 0.52 l-3 -7.36 l0 7.24 c0 0.6 -2.22 0.6 -2.22 0 l0 -12.5 c0 -1.56 1.94 -1.1 2.2 -0.54 l2.94 7.08 l0 -7.18 c0 -0.6 2.2 -0.6 2.2 0 z M44.54 6 l7.96 0 c0.6 0 0.6 2.24 0 2.24 l-2.84 0.04 l0 11.28 c0 0.6 -2.28 0.6 -2.28 0 l0 -11.28 l-2.84 -0.04 c-0.6 0 -0.6 -2.24 0 -2.24 z M57.24 17.72 l2.86 0 c0.6 0 0.6 2.28 0 2.28 l-3.86 0 c-1.28 0 -1.28 0 -1.28 -1.08 l0 -11.84 c0 -1.08 0 -1.08 1.22 -1.1 l3.9 0.02 c0.6 0 0.6 2.28 0 2.28 l-2.84 0 l0 3.64 l2 0 c0.6 0 0.6 2.3 0 2.3 l-2 0 l0 3.5 z M70.86 18.86 c0.42 1 -1.82 1.48 -2.08 0.88 l-0.12 -0.28 c-0.66 -1.58 -1.38 -3.38 -2.04 -4.98 l-0.98 0 l0 5.08 c0 0.6 -2.28 0.6 -2.28 0 l0 -12.3 c0 -0.94 0.02 -1.24 1.42 -1.26 l2.06 0 c0.72 0 1.52 0.02 2.14 0.42 c1.36 0.86 1.78 2.38 1.76 3.92 c-0.02 1.28 -0.2 2.56 -1.46 3.5 c-0.14 0.08 -0.26 0.16 -0.38 0.24 c0.64 1.52 1.34 3.26 1.96 4.78 z M68.46000000000001 10.76 c0.02 -0.22 0.02 -1.02 -0.02 -1.4 c-0.08 -0.74 -0.36 -1.12 -1.28 -1.12 l-1.52 0 l0 3.96 l1.72 0 c0.92 0 1.06 -1.12 1.1 -1.44 z"/></g>
			</g>
		</svg>
	