
        <svg xmlns="http://www.w3.org/2000/svg" xmlns:xlink="http://www.w3.org/1999/xlink" version="1.1" width="3206.896551724138" height="2296.6327444028034" viewBox="0 -113.79310344827587 3206.896551724138 2296.6327444028034">
			
			<g transform="scale(10.344827586206897) translate(10, 10)">
				<defs id="SvgjsDefs3456"/><g id="SvgjsG3457" featureKey="symbolFeature-0" transform="matrix(1.445983287822906,0,0,1.445983287822906,79.13240999283133,-26.761217285670824)" fill="#fff"><g xmlns="http://www.w3.org/2000/svg"><g><path d="M56.3,49.2c-0.2-0.3-0.6-0.3-0.9-0.1L38.8,60.9c-0.3,0.2-0.3,0.6-0.1,0.9C38.8,62,39,62,39.2,62c0.1,0,0.3,0,0.4-0.1    l16.5-11.8C56.4,49.9,56.5,49.5,56.3,49.2z"/><path d="M76,50.8c-0.2-0.3-0.6-0.3-0.9-0.1L58.6,62.5c-0.3,0.2-0.3,0.6-0.1,0.9c0.1,0.2,0.3,0.3,0.5,0.3c0.1,0,0.3,0,0.4-0.1    l16.5-11.8C76.1,51.5,76.2,51.1,76,50.8z"/><path d="M61.8,53.9c0.2,0,0.4-0.1,0.6-0.2l3-2.2c0.4-0.3,0.5-0.9,0.2-1.3c-0.3-0.4-0.9-0.5-1.3-0.2l-3,2.2    c-0.4,0.3-0.5,0.9-0.2,1.3C61.2,53.8,61.5,53.9,61.8,53.9z"/><path d="M67.8,49.5c0.2,0,0.4-0.1,0.6-0.2l1.3-0.9c0.4-0.3,0.5-0.9,0.2-1.3c-0.3-0.4-0.9-0.5-1.3-0.2l-1.3,0.9    c-0.4,0.3-0.5,0.9-0.2,1.3C67.3,49.3,67.5,49.5,67.8,49.5z"/><path d="M59.5,54.6c-0.3-0.4-0.9-0.5-1.3-0.2l-3,2.2C54.7,57,54.6,57.5,55,58c0.2,0.3,0.5,0.4,0.8,0.4c0.2,0,0.4-0.1,0.6-0.2    l3-2.2C59.7,55.6,59.8,55.1,59.5,54.6z"/><path d="M52.1,58.9l-3,2.2c-0.4,0.3-0.5,0.9-0.2,1.3c0.2,0.3,0.5,0.4,0.8,0.4c0.2,0,0.4-0.1,0.6-0.2l3-2.2    c0.4-0.3,0.5-0.9,0.2-1.3C53.1,58.6,52.5,58.6,52.1,58.9z"/><path d="M46.1,63.3l-3,2.2c-0.4,0.3-0.5,0.9-0.2,1.3c0.2,0.3,0.5,0.4,0.8,0.4c0.2,0,0.4-0.1,0.6-0.2l3-2.2    c0.4-0.3,0.5-0.9,0.2-1.3C47.1,63.1,46.5,63,46.1,63.3z"/></g><g><path d="M77.4,39.7H64.5H51.7H38.8h-9.8h-2.8H26H13.4c0.7,2.9,3.3,5.1,6.4,5.1c3,0,5.5-2,6.3-4.7c0.5,1.6,1.5,2.9,2.9,3.8v25.8    H10.2V44.1c1.6-0.9,2.9-2.5,3.3-4.3h-3.3h-4H0.6c0.6,2.6,2.8,4.7,5.5,5v32h77.7V44.9c3.1,0,5.8-2.2,6.4-5.1h-6.4H77.4z M32.4,69.7    V44.9c2.8,0,5.2-1.8,6.1-4.2h0.6c0.9,2.5,3.3,4.2,6.1,4.2c2.8,0,5.2-1.8,6.1-4.2H52c0.9,2.5,3.3,4.2,6.1,4.2    c2.8,0,5.2-1.8,6.1-4.2h0.6c0.9,2.5,3.3,4.2,6.1,4.2s5.2-1.8,6.1-4.2h0.6c0.4,1,1,1.9,1.9,2.7v26.4H32.4z"/><polygon points="38.8,38.5 38.8,38.5 38.8,16.4 30,16.4 26.3,38.5   "/><polygon points="50.4,16.4 51.7,38.5 64.5,38.5 64.5,38.5 60.8,16.4   "/><polygon points="77.4,38.5 90.2,38.5 82.7,16.4 71.1,16.4   "/><rect x="8" y="10.9" width="74.4" height="3.8"/><polygon points="19.7,16.4 8.1,16.4 0.6,38.5 13.4,38.5   "/></g><path d="M26.2,59.3h-0.5c-0.5,0-0.9-0.4-0.9-0.9v-5.9c0-0.5,0.4-0.9,0.9-0.9h0.5c0.5,0,0.9,0.4,0.9,0.9v5.9   C27.2,58.9,26.8,59.3,26.2,59.3z"/><rect x="3.1" y="79.3" width="83.3" height="3.8"/></g></g><g id="SvgjsG3458" featureKey="nameFeature-0" transform="matrix(0.9840554094507726,0,0,0.9840554094507726,-0.5184399585282414,113.81295869097823)" fill="#fff"><path d="M0.52734 37.8711 l1.8359 -8.0664 l2.9883 0 c0.39063 4.1797 9.707 5.918 10.625 1.8359 c0.48828 -2.0703 -6.8164 -2.6367 -9.2188 -4.5117 c-2.3828 -1.8555 -2.6367 -4.4141 -2.0117 -7.1484 c2.3438 -10.313 16.367 -11.309 24.453 -7.2461 l-1.7969 7.832 l-3.0078 0 c0.17578 -2.9492 -8.7305 -4.9414 -9.5313 -1.4063 c-0.625 2.7344 8.4375 1.9336 10.918 6.2695 c2.4023 4.2969 -1.3672 9.9414 -4.8242 12.305 c-6.0742 4.0039 -14.16 3.3203 -20.43 0.13672 z M58.9017421875 10.918 l-6.6992 29.082 l-9.7656 0 l2.7344 -11.914 l-5.625 0 l-2.7539 11.914 l-9.8047 0 l6.6992 -29.082 l9.8047 0 l-2.2656 9.8242 l5.6445 0 l2.2656 -9.8242 l9.7656 0 z M59.052778125 27.266 c0.097656 -0.60547 0.19531 -1.2305 0.35156 -1.8359 c2.0117 -8.8086 8.3203 -15.078 17.637 -15.078 c9.043 0 12.754 6.3477 10.762 15.078 c-0.13672 0.60547 -0.3125 1.2305 -0.50781 1.8359 l0 0 c-2.4414 7.6563 -8.6523 13.203 -17.168 13.203 c-8.7695 0 -12.207 -5.5469 -11.074 -13.203 z M69.033078125 27.266 c-0.97656 8.0273 5.5664 7.8711 8.2813 0 l0 0 c0.19531 -0.60547 0.37109 -1.2109 0.52734 -1.875 c2.4219 -10.566 -6.0938 -10.273 -8.457 0.039063 c-0.17578 0.64453 -0.27344 1.25 -0.35156 1.8359 z M88.0126890625 40.078125 c2.2266 -9.707 4.4727 -19.395 6.6992 -29.082 l11.738 0 c7.0508 0 11.914 3.6133 8.6914 11.582 c-2.7344 6.6992 -8.3984 8.7109 -15.352 8.7109 l-2.0117 8.7891 l-9.7656 0 z M102.7977890625 18.223 c-0.44922 1.9531 -0.87891 3.8867 -1.3281 5.8398 c4.8828 -0.19531 6.7188 -5.8398 1.3281 -5.8398 z M137.0067921875 25.508 c2.0117 -8.75 8.7109 -15.137 17.91 -15.137 c5.1758 0 8.1055 1.4648 9.8438 2.7344 l-1.875 8.1445 l-3.125 0 c-12.637 -13.613 -22.285 21.719 -1.7773 8.457 l2.9492 0 l-1.8359 7.9883 c-10.313 5.9375 -25.781 3.8477 -22.09 -12.188 z M182.763328125 40 l-20.859 0 l6.6992 -29.082 l20.859 0 l-1.6992 7.3438 l-11.094 0 l-0.56641 2.4805 l10.215 0 l-1.6797 7.3438 l-10.215 0 l-1.0547 4.5508 l11.094 0 z M199.3019453125 27.383 l-0.27344 -0.87891 l-0.19531 0.87891 l-2.9297 12.695 l-9.1992 0 l6.6992 -29.082 l10.762 0 l3.1836 10.293 l2.3828 -10.293 l9.2383 0 l-6.6992 29.082 l-9.082 0 z M232.14865625 39.960937 l-9.7852 0 l4.9414 -21.68 l-7.6953 0 l1.6797 -7.3633 l25.137 0 l-1.6797 7.3633 l-7.6563 0 z M262.6705546875 40 l-20.859 0 l6.6992 -29.082 l20.859 0 l-1.6992 7.3438 l-11.094 0 l-0.56641 2.4805 l10.215 0 l-1.6797 7.3438 l-10.215 0 l-1.0547 4.5508 l11.094 0 z M288.408171875 27.715 l6.582 12.246 l-11.602 0 l-4.8242 -9.4336 l-2.1484 9.4336 l-9.7461 0 l6.6211 -29.043 c3.3594 0 9.4531 -0.35156 14.258 0.35156 c4.2188 0.58594 8.3008 2.1875 7.5977 7.2656 c-0.48828 3.6328 -3.6914 7.3633 -6.7383 9.1797 z M281.396171875 18.066 l-1.1328 5.0391 c4.6289 0 7.2852 -5.0391 1.1328 -5.0391 z"/></g><g id="SvgjsG3459" featureKey="sloganFeature-0" transform="matrix(0.7964547458122505,0,0,0.7964547458122505,66.27930822683818,169.1121556389922)" fill="#fff"><path d="M9.86 8.98 c0.5 0.36 0.44 0.88 0.38 1.36 c-0.16 1.2 -0.92 2.1 -1.68 2.98 c-0.8 0.9 -1.7 1.7 -2.68 2.4 c-0.52 0.38 -0.42 0.52 0.06 0.82 c0.78 0.46 1.06 1.24 1.12 2.1 c0.2 3.86 -3.62 5.78 -6.54 4.38 c-0.66 -0.32 -0.9 -0.24 -1.1 0.44 c-0.14 0.46 -0.38 0.9 -0.56 1.36 c-0.08 0.18 -0.08 0.44 -0.36 0.36 c-0.2 -0.08 -0.06 -0.28 -0.04 -0.44 c0.06 -0.66 0.34 -1.28 0.52 -1.9 c0.12 -0.42 0.14 -0.72 -0.1 -1.12 c-0.86 -1.44 -0.36 -3.94 0.92 -4.98 c0.14 -0.12 0.32 -0.22 0.44 -0.1 c0.2 0.2 -0.1 0.22 -0.18 0.32 c-0.9 1.18 -1.64 2.42 -1.18 4 c0.06 0.2 0.12 0.5 0.36 0.52 c0.3 0 0.26 -0.34 0.32 -0.56 c1.4 -4.06 2.98 -8.06 4.6 -12.04 c0.14 -0.32 0.16 -0.9 0.6 -0.84 c0.18 0.04 -0.14 0.62 -0.26 0.94 c-1.5 3.96 -3.2 7.82 -4.46 11.86 c0.46 -0.02 0.46 -0.46 0.58 -0.72 c1.32 -2.72 2.72 -5.4 4.58 -7.8 c0.78 -1 1.54 -2.02 2.6 -2.74 c0.22 -0.16 0.42 -0.34 0.66 -0.44 c0.44 -0.2 0.86 -0.52 1.4 -0.16 z M9.84 10.52 c0.14 -0.38 0.2 -0.8 -0.14 -1.1 c-0.38 -0.34 -0.76 -0.12 -1.1 0.06 c-0.18 0.1 -0.34 0.2 -0.5 0.32 c-1.08 0.76 -1.88 1.78 -2.68 2.8 c-2.02 2.56 -3.46 5.48 -4.88 8.38 c-0.7 1.42 -0.56 1.7 1.02 2 l0.84 0.18 c1.16 -0.16 2.24 -0.4 3.1 -1.24 c0.88 -0.88 1.2 -2 1.18 -3.18 c0 -0.98 -0.5 -1.74 -1.44 -2.2 c-0.46 -0.22 -0.28 -0.52 0 -0.78 c0.58 -0.48 1.2 -0.96 1.78 -1.46 c1.2 -1.06 2.3 -2.2 2.82 -3.78 z M-0.04 21.22 l0.1 0 c-0.02 -0.1 -0.04 -0.2 -0.04 -0.3 z M15.474999999999998 23.32 c-2.66 0.82 -4.48 -0.52 -4.48 -3.92 c0.16 -1.96 1.54 -3.84 3.62 -5.22 c0.6 -0.38 0.84 -0.74 0.78 -1.42 c-0.16 -1.76 1.7 -4.32 4.3 -4.64 c1.6 -0.2 2.54 1.02 2.04 2.6 c-0.38 1.16 -1.26 1.82 -2.32 2.28 c-0.14 0.06 -0.3 0.04 -0.34 -0.1 c-0.06 -0.2 0.14 -0.16 0.24 -0.2 c1.12 -0.44 1.94 -1.16 2.2 -2.36 c0.26 -1.12 -0.68 -2.06 -1.8 -1.88 c-1.9 0.32 -3.58 1.9 -3.88 3.8 c-0.08 1.22 -0.02 1.08 0.78 1.1 c0.7 0 1.2 0.2 1.46 0.62 c0.2 0.34 0.04 0.7 -0.3 0.94 c-0.54 0.28 -0.94 0.26 -1.56 -0.06 c-0.96 -0.56 -1.08 -0.68 -1.96 0.02 c-1.46 1.18 -2.48 2.68 -2.86 4.54 c-0.22 1.02 0.08 2 0.64 2.84 c0.56 0.88 1.9 1.14 3.26 0.74 c1.9 -0.56 3.34 -1.74 4.58 -3.22 c0.26 -0.3 0.66 -0.96 0.86 -0.72 c0.16 0.18 -0.4 0.62 -0.64 0.94 c-1.22 1.54 -2.72 2.74 -4.62 3.32 z M17.075 14.719999999999999 c0.3 0 0.68 -0.06 0.66 -0.42 c-0.02 -0.5 -0.6 -0.5 -1.02 -0.56 c-0.42 0.02 -0.98 0.02 -0.96 0.3 c0 0.28 0.62 0.68 1.32 0.68 z M23.13 26.72 c-2.42 -0.78 -3.18 -2.96 -2.1 -5.08 c1.48 -2.86 3.8 -4.58 6.3 -5 c2.44 -0.4 3.98 0.92 3.84 2.92 c-0.1 1.34 -0.62 2.8 -1.76 3.98 c-0.12 0.12 -0.28 0.4 -0.46 0.24 c-0.22 -0.2 0.1 -0.32 0.22 -0.44 c1 -1.02 1.56 -2.34 1.66 -3.66 c0.12 -1.6 -1 -3.02 -3.82 -2.54 c-2.22 0.38 -4.32 2.32 -5.46 4.3 c-1.22 2.12 -0.7 4.4 2.2 5.06 c2.9 0.68 7.56 -0.92 8.32 -5.5 c0.58 -3.24 -0.9 -6.96 0.24 -9.82 c0.26 -0.56 0.18 -0.68 -0.46 -0.74 c-1.24 -0.1 -4 -0.14 -5.02 0.74 s-1.16 2.2 0.22 3.12 c0.1 0.06 0.32 -0.02 0.28 0.18 c-0.06 0.22 -0.26 0.18 -0.4 0.1 c-0.62 -0.28 -1.14 -0.7 -1.26 -1.42 c-0.12 -0.86 0.12 -1.62 0.8 -2.14 c1.08 -0.84 2.06 -0.94 4.26 -0.94 c1.16 0.06 2.16 0.14 2.52 -0.48 c0.98 -1.38 3.12 -2.94 4.88 -3.36 c1.06 -0.26 2.18 -0.04 2.52 0.8 c0.26 0.62 -0.22 1.58 -1.12 2.1 c-1.38 0.82 -4.46 1.5 -5.86 1.3 c-0.5 -0.06 -0.7 0.26 -0.86 0.66 c-1.28 3.26 0.52 6.22 -0.4 10.26 c-0.96 4.16 -5.3 6.62 -9.28 5.36 z M33.57 10.02 c0.24 0.38 4.04 -0.32 5.26 -0.9 c2.52 -1.16 1.56 -3.3 -1 -2.4 c-1.58 0.58 -2.96 1.48 -4.04 2.8 c-0.1 0.14 -0.34 0.28 -0.22 0.5 z M39.464999999999996 25.16 c-0.18 -0.04 -0.16 -0.28 -0.12 -0.42 c0.22 -0.84 0.46 -1.66 0.68 -2.48 c1.32 -4.86 2.02 -5.98 4.06 -10.58 c0.08 -0.2 0.18 -0.42 0.26 -0.64 c0.18 -0.36 0.12 -0.46 -0.32 -0.38 c-2.04 0.4 -4.08 0.8 -5.98 1.7 c-0.16 0.08 -0.38 0.34 -0.5 0.12 c-0.12 -0.2 0.22 -0.3 0.38 -0.38 c1.48 -0.76 3.08 -1.14 4.7 -1.48 c0.54 -0.12 1.1 -0.26 1.64 -0.36 c0.3 -0.06 0.56 -0.16 0.66 -0.5 c0.06 -0.18 0.1 -0.56 0.38 -0.46 c0.26 0.08 -0.04 0.34 -0.04 0.5 c0.02 0.34 0.3 0.22 0.46 0.2 c0.68 -0.06 1.38 -0.1 2.06 -0.22 c1.8 -0.34 3.62 -0.48 5.42 -0.7 c0.16 -0.02 0.32 0 0.48 0.06 c0.1 0.04 0.32 0.02 0.26 0.22 c-0.06 0.16 -0.22 0.06 -0.34 0.04 c-0.06 -0.02 -0.14 -0.02 -0.2 -0.04 c-1.32 0.14 -2.64 0.28 -3.94 0.46 c-1.22 0.16 -2.42 0.38 -3.62 0.52 c-0.58 0.06 -0.92 0.28 -1.14 0.78 c-2.46 5.6 -3.56 7.72 -5.04 13.68 c-0.04 0.14 0.06 0.4 -0.2 0.36 z M57.794999999999995 23.58 c-2.48 -0.3 -3.36 -2.44 -3.1 -4.34 c0.46 -3.6 2.44 -6.3 5.44 -8.28 c0.52 -0.34 1.08 -0.5 1.68 -0.58 c0.48 -0.08 1.02 0.12 0.98 0.38 c0 0.1 -0.18 0.12 -0.26 0.1 c-1.12 -0.24 -2.02 0.26 -2.82 0.88 c-2.18 1.72 -3.78 3.82 -4.44 6.56 c-0.2 0.86 -0.26 1.76 -0.02 2.58 c0.66 2.26 2.28 2.62 4.34 2.16 c1.84 -0.4 3.3 -1.54 4.6 -2.86 c1.94 -1.96 3.4 -4.2 3.94 -7 c0.46 -2.42 -1 -4.94 -3.38 -5.58 c-1.48 -0.4 -2.7 0.3 -3.88 1.1 c-0.14 0.12 -0.3 0.32 -0.4 0.22 c-0.22 -0.22 0 -0.38 0.16 -0.5 c0.86 -0.68 1.78 -1.12 2.88 -1.28 c2.72 -0.4 5.02 2.28 5.08 4.84 c-0.1 2.86 -1.26 4.98 -2.76 6.9 c-1.32 1.7 -2.9 3.12 -4.86 4.06 c-1 0.5 -2.08 0.78 -3.18 0.64 z M77.64999999999999 26.48 c-0.34 0.02 -0.38 -0.56 -0.32 -0.9 c0.62 -3.82 1.28 -7.64 2.92 -11.2 c0.54 -1.14 0.98 -2.32 1.42 -3.5 c0.08 -0.2 0.32 -0.52 0.02 -0.72 c-0.22 -0.14 -0.44 0.1 -0.62 0.22 c-1.76 1.06 -3.2 2.5 -4.52 4.04 c-1.76 2 -3.22 4.22 -4.44 6.58 c-0.1 0.2 -0.2 0.54 -0.46 0.42 c-0.28 -0.14 -0.02 -0.4 0.06 -0.6 c1.12 -3 2.5 -5.92 3.74 -8.88 c0.22 -0.54 0.82 -1.28 0.32 -1.7 c-0.32 -0.26 -0.98 0.52 -1.46 0.86 c-0.72 0.5 -1.32 1.12 -1.88 1.78 c-0.3 0.34 -1 0.74 -0.24 1.34 c0.06 0.06 0 0.2 -0.1 0.22 c-0.08 0.04 -0.22 0.04 -0.28 -0.02 c-0.44 -0.34 -0.38 -0.76 -0.12 -1.14 c1 -1.46 2.32 -2.56 3.8 -3.48 c0.22 -0.14 0.5 -0.2 0.76 0 c0.28 0.22 0.22 0.52 0.14 0.82 c-0.34 1.26 -0.98 2.4 -1.44 3.6 c-0.4 1.04 -1.04 1.98 -1.28 3.1 c-0.02 0.06 0.04 0.1 0.08 0.04 c0.8 -1 1.58 -2.02 2.4 -3.02 c1.28 -1.54 2.68 -2.96 4.34 -4.1 l0.6 -0.36 c0.34 -0.18 0.72 -0.3 1.02 0 c0.26 0.26 0.18 0.62 0.06 0.94 c-0.44 1.32 -0.96 2.6 -1.56 3.86 c-1.62 3.5 -2.3 7.22 -2.92 10.98 l0 0.1 c-0.16 0.26 0.36 0.7 -0.04 0.72 z M92.86499999999998 22.16 c-2.54 1.08 -4.44 0.98 -6.62 -0.9 c-0.44 -0.38 -0.68 -0.54 -1.14 -0.06 c-0.32 0.34 -0.78 0.32 -1.16 -0.02 c-0.32 -0.28 -0.36 -0.62 -0.12 -0.96 c0.26 -0.38 0.6 -0.7 1.08 -0.4 c0.74 0.48 1.04 -0.02 1.34 -0.56 c1.56 -2.7 2.7 -5.6 3.64 -8.56 l0.8 -2.54 c0.04 -0.14 0.1 -0.26 0.26 -0.22 c0.04 0.02 0.08 0.18 0.06 0.28 c-0.12 0.44 -0.24 0.88 -0.38 1.32 c-1.08 3.62 -2.34 7.16 -4.38 10.38 c-0.2 0.3 -0.34 0.6 0.16 0.98 c2.26 1.74 3.42 1.98 5.8 1.18 c0.24 -0.08 0.7 -0.3 0.94 -0.54 c0.18 -0.18 0.24 -0.12 0.28 0.04 c0.06 0.28 -0.16 0.4 -0.56 0.58 z M84.54499999999999 21.06 c0.34 -0.02 0.64 -0.24 0.66 -0.52 c0 -0.28 -0.34 -0.36 -0.7 -0.38 c-0.22 0.06 -0.5 0.16 -0.46 0.56 c0.02 0.3 0.26 0.34 0.5 0.34 z M94.83999999999999 23.52 c-0.32 -0.04 -0.12 -0.3 -0.1 -0.6 c0.48 -1.46 1.06 -2.98 1.74 -4.5 c1.32 -2.78 2.64 -5.54 3.94 -8.34 c0.28 -0.62 0.58 -1.26 0.66 -1.96 c0.04 -0.28 0.18 -0.58 -0.04 -0.76 c-0.28 -0.24 -0.58 -0.02 -0.84 0.08 c-1.46 0.76 -2.74 1.74 -3.96 2.84 c-0.46 0.42 -0.94 0.84 -1.32 1.34 c-0.76 1.02 -0.5 1.78 0.52 2.06 c0.1 0.02 0.22 0.04 0.2 0.16 c0 0.22 -0.18 0.16 -0.3 0.14 c-0.76 -0.02 -1.32 -0.84 -1.14 -1.62 c0.16 -0.58 0.5 -1.08 0.92 -1.5 c1.4 -1.36 2.92 -2.64 4.64 -3.62 c0.1 -0.06 0.2 -0.14 0.34 -0.18 c0.42 -0.12 0.84 -0.52 1.28 -0.1 c0.42 0.36 0.32 0.86 0.18 1.3 c-0.26 0.82 -0.54 1.62 -0.9 2.42 c-1.46 3.06 -2.9 6.14 -4.34 9.24 c-0.5 1.04 -0.92 2.12 -1.22 3.22 c-0.06 0.18 -0.08 0.42 -0.26 0.38 z M108.85499999999999 26.48 c-0.34 0.02 -0.38 -0.56 -0.32 -0.9 c0.62 -3.82 1.28 -7.64 2.92 -11.2 c0.54 -1.14 0.98 -2.32 1.42 -3.5 c0.08 -0.2 0.32 -0.52 0.02 -0.72 c-0.22 -0.14 -0.44 0.1 -0.62 0.22 c-1.76 1.06 -3.2 2.5 -4.52 4.04 c-1.76 2 -3.22 4.22 -4.44 6.58 c-0.1 0.2 -0.2 0.54 -0.46 0.42 c-0.28 -0.14 -0.02 -0.4 0.06 -0.6 c1.12 -3 2.5 -5.92 3.74 -8.88 c0.22 -0.54 0.82 -1.28 0.32 -1.7 c-0.32 -0.26 -0.98 0.52 -1.46 0.86 c-0.72 0.5 -1.32 1.12 -1.88 1.78 c-0.3 0.34 -1 0.74 -0.24 1.34 c0.06 0.06 0 0.2 -0.1 0.22 c-0.08 0.04 -0.22 0.04 -0.28 -0.02 c-0.44 -0.34 -0.38 -0.76 -0.12 -1.14 c1 -1.46 2.32 -2.56 3.8 -3.48 c0.22 -0.14 0.5 -0.2 0.76 0 c0.28 0.22 0.22 0.52 0.14 0.82 c-0.34 1.26 -0.98 2.4 -1.44 3.6 c-0.4 1.04 -1.04 1.98 -1.28 3.1 c-0.02 0.06 0.04 0.1 0.08 0.04 c0.8 -1 1.58 -2.02 2.4 -3.02 c1.28 -1.54 2.68 -2.96 4.34 -4.1 l0.6 -0.36 c0.34 -0.18 0.72 -0.3 1.02 0 c0.26 0.26 0.18 0.62 0.06 0.94 c-0.44 1.32 -0.96 2.6 -1.56 3.86 c-1.62 3.5 -2.3 7.22 -2.92 10.98 l0 0.1 c-0.16 0.26 0.36 0.7 -0.04 0.72 z M119.67 23.32 c-2.66 0.82 -4.48 -0.52 -4.48 -3.92 c0.16 -1.96 1.54 -3.84 3.62 -5.22 c0.6 -0.38 0.84 -0.74 0.78 -1.42 c-0.16 -1.76 1.7 -4.32 4.3 -4.64 c1.6 -0.2 2.54 1.02 2.04 2.6 c-0.38 1.16 -1.26 1.82 -2.32 2.28 c-0.14 0.06 -0.3 0.04 -0.34 -0.1 c-0.06 -0.2 0.14 -0.16 0.24 -0.2 c1.12 -0.44 1.94 -1.16 2.2 -2.36 c0.26 -1.12 -0.68 -2.06 -1.8 -1.88 c-1.9 0.32 -3.58 1.9 -3.88 3.8 c-0.08 1.22 -0.02 1.08 0.78 1.1 c0.7 0 1.2 0.2 1.46 0.62 c0.2 0.34 0.04 0.7 -0.3 0.94 c-0.54 0.28 -0.94 0.26 -1.56 -0.06 c-0.96 -0.56 -1.08 -0.68 -1.96 0.02 c-1.46 1.18 -2.48 2.68 -2.86 4.54 c-0.22 1.02 0.08 2 0.64 2.84 c0.56 0.88 1.9 1.14 3.26 0.74 c1.9 -0.56 3.34 -1.74 4.58 -3.22 c0.26 -0.3 0.66 -0.96 0.86 -0.72 c0.16 0.18 -0.4 0.62 -0.64 0.94 c-1.22 1.54 -2.72 2.74 -4.62 3.32 z M121.27 14.719999999999999 c0.3 0 0.68 -0.06 0.66 -0.42 c-0.02 -0.5 -0.6 -0.5 -1.02 -0.56 c-0.42 0.02 -0.98 0.02 -0.96 0.3 c0 0.28 0.62 0.68 1.32 0.68 z M134.51999999999998 26.72 c-2.42 -0.78 -3.18 -2.96 -2.1 -5.08 c1.48 -2.86 3.8 -4.58 6.3 -5 c2.44 -0.4 3.98 0.92 3.84 2.92 c-0.1 1.34 -0.62 2.8 -1.76 3.98 c-0.12 0.12 -0.28 0.4 -0.46 0.24 c-0.22 -0.2 0.1 -0.32 0.22 -0.44 c1 -1.02 1.56 -2.34 1.66 -3.66 c0.12 -1.6 -1 -3.02 -3.82 -2.54 c-2.22 0.38 -4.32 2.32 -5.46 4.3 c-1.22 2.12 -0.7 4.4 2.2 5.06 c2.9 0.68 7.56 -0.92 8.32 -5.5 c0.58 -3.24 -0.9 -6.96 0.24 -9.82 c0.26 -0.56 0.18 -0.68 -0.46 -0.74 c-1.24 -0.1 -4 -0.14 -5.02 0.74 s-1.16 2.2 0.22 3.12 c0.1 0.06 0.32 -0.02 0.28 0.18 c-0.06 0.22 -0.26 0.18 -0.4 0.1 c-0.62 -0.28 -1.14 -0.7 -1.26 -1.42 c-0.12 -0.86 0.12 -1.62 0.8 -2.14 c1.08 -0.84 2.06 -0.94 4.26 -0.94 c1.16 0.06 2.16 0.14 2.52 -0.48 c0.98 -1.38 3.12 -2.94 4.88 -3.36 c1.06 -0.26 2.18 -0.04 2.52 0.8 c0.26 0.62 -0.22 1.58 -1.12 2.1 c-1.38 0.82 -4.46 1.5 -5.86 1.3 c-0.5 -0.06 -0.7 0.26 -0.86 0.66 c-1.28 3.26 0.52 6.22 -0.4 10.26 c-0.96 4.16 -5.3 6.62 -9.28 5.36 z M144.95999999999998 10.02 c0.24 0.38 4.04 -0.32 5.26 -0.9 c2.52 -1.16 1.56 -3.3 -1 -2.4 c-1.58 0.58 -2.96 1.48 -4.04 2.8 c-0.1 0.14 -0.34 0.28 -0.22 0.5 z M152.515 26.96 c-0.2 0.04 -0.18 -0.14 -0.18 -0.26 c-0.06 -0.5 0.14 -0.96 0.32 -1.44 c0.78 -2.14 1.58 -4.28 2.36 -6.42 c0.08 -0.24 0.3 -0.52 0.12 -0.72 c-0.16 -0.18 -0.5 -0.1 -0.76 -0.04 c-1 0.22 -2 0.42 -3 0.66 c-0.66 0.16 -1.26 0.42 -1.7 0.96 c-0.1 0.12 -0.22 0.2 -0.34 0.1 c-0.14 -0.12 0 -0.24 0.08 -0.32 c0.32 -0.34 0.66 -0.62 1.12 -0.8 c1.3 -0.52 2.68 -0.78 4.04 -0.94 c0.72 -0.08 1.04 -0.4 1.28 -1.02 c0.84 -2.12 1.7 -4.24 2.58 -6.36 c0.1 -0.24 0.14 -0.7 0.5 -0.54 c0.24 0.08 -0.06 0.46 -0.14 0.68 c-0.84 2.1 -1.7 4.18 -2.56 6.24 c-0.1 0.22 -0.28 0.44 -0.1 0.64 c0.16 0.22 0.42 0.02 0.64 0 c1.98 -0.24 3.94 -0.5 5.92 -0.64 c0.66 -0.04 0.84 -0.36 1 -0.84 c0.92 -2.62 1.96 -5.2 3.18 -7.7 c0.16 -0.32 0.34 -0.94 0.58 -0.8 c0.38 0.24 -0.12 0.66 -0.26 0.96 c-1.16 2.5 -2.18 5.04 -3.14 7.62 c-0.22 0.58 -0.1 0.78 0.52 0.72 c0.18 -0.02 0.4 -0.02 0.6 0 c0.16 0.02 0.46 -0.06 0.38 0.26 c-0.04 0.22 -0.24 0.18 -0.44 0.1 c-0.1 0 -0.22 0 -0.36 -0.02 c-0.78 -0.14 -1.2 0.16 -1.44 0.94 c-0.72 2.12 -1.5 4.24 -2.24 6.36 l-0.24 0.64 c-0.04 0.08 -0.14 0.12 -0.22 0.18 c-0.02 -0.1 -0.1 -0.18 -0.08 -0.26 c0.08 -0.3 0.16 -0.58 0.26 -0.86 c0.74 -2.08 1.5 -4.16 2.24 -6.24 c0.12 -0.36 0.38 -0.84 -0.38 -0.72 c-2.1 0.3 -4.22 0.36 -6.32 0.74 c-0.42 0.08 -0.64 0.24 -0.78 0.62 c-0.98 2.76 -2.26 5.42 -2.92 8.3 c-0.02 0.08 -0.06 0.22 -0.12 0.22 z M171.67 23.58 c-2.48 -0.3 -3.36 -2.44 -3.1 -4.34 c0.46 -3.6 2.44 -6.3 5.44 -8.28 c0.52 -0.34 1.08 -0.5 1.68 -0.58 c0.48 -0.08 1.02 0.12 0.98 0.38 c0 0.1 -0.18 0.12 -0.26 0.1 c-1.12 -0.24 -2.02 0.26 -2.82 0.88 c-2.18 1.72 -3.78 3.82 -4.44 6.56 c-0.2 0.86 -0.26 1.76 -0.02 2.58 c0.66 2.26 2.28 2.62 4.34 2.16 c1.84 -0.4 3.3 -1.54 4.6 -2.86 c1.94 -1.96 3.4 -4.2 3.94 -7 c0.46 -2.42 -1 -4.94 -3.38 -5.58 c-1.48 -0.4 -2.7 0.3 -3.88 1.1 c-0.14 0.12 -0.3 0.32 -0.4 0.22 c-0.22 -0.22 0 -0.38 0.16 -0.5 c0.86 -0.68 1.78 -1.12 2.88 -1.28 c2.72 -0.4 5.02 2.28 5.08 4.84 c-0.1 2.86 -1.26 4.98 -2.76 6.9 c-1.32 1.7 -2.9 3.12 -4.86 4.06 c-1 0.5 -2.08 0.78 -3.18 0.64 z M185.36499999999998 27.48 c-0.12 -0.04 -0.04 -0.36 0.02 -0.56 c0.64 -1.76 1.28 -3.54 1.9 -5.32 c0.12 -0.36 0.38 -0.78 -0.18 -1.14 c-0.48 -0.22 0.02 -0.46 0.1 -0.38 c0.56 0.7 1.02 -0.84 1.5 -1.92 c0.34 -0.78 0.72 -1.62 1.04 -2.46 c0.34 -0.82 0.64 -1.66 0.96 -2.5 c0.2 -0.5 0.38 -1 0.58 -1.48 c0.04 -0.14 0.06 -0.4 0.26 -0.32 c0.14 0.04 0.12 0.28 0.04 0.44 c-0.82 2.1 -1.52 4.24 -2.46 6.28 c-0.3 0.64 -0.54 1.28 -0.84 1.9 c-0.26 0.52 -0.1 0.76 0.4 0.98 c2.46 1.04 5.38 -0.5 7.32 -2.94 c2.24 -2.78 3.66 -6.8 2.14 -9.2 c-2.64 -4.18 -11.7 2.08 -12.7 7.58 c0 0.12 0.1 0.32 -0.06 0.32 c-0.2 0.02 -0.26 -0.18 -0.24 -0.34 c0.7 -4.48 6.5 -9.8 10.7 -9.4 c5.42 0.66 4 8.62 -1.24 13 c-1.56 1.4 -4.28 2.26 -6 1.28 c-0.7 -0.32 -0.84 -0.1 -1.04 0.5 c-0.6 1.74 -1.24 3.48 -1.88 5.22 c-0.06 0.18 0.04 0.54 -0.32 0.46 z"/></g>
			</g>
		</svg>
	